<svg width="50" height="51" viewBox="0 0 50 51" fill="none" xmlns="http://www.w3.org/2000/svg">
<g clip-path="url(#clip0_415_853)">
<path d="M25 50.7273C38.8071 50.7273 50 39.5344 50 25.7273C50 11.9201 38.8071 0.727264 25 0.727264C11.1929 0.727264 0 11.9201 0 25.7273C0 39.5344 11.1929 50.7273 25 50.7273Z" fill="#F0F0F0"/>
<path d="M25 19.2055H49.1388C48.5119 16.8799 47.5592 14.6884 46.3307 12.6837H25V19.2055Z" fill="#338AF3"/>
<path d="M9.43777 45.2925H40.5621C42.8436 43.4753 44.8003 41.2681 46.3305 38.7707H3.66931C5.19968 41.268 7.15632 43.4753 9.43777 45.2925V45.2925Z" fill="#338AF3"/>
<path d="M25 0.727264V6.16203H40.5622C36.2917 2.76086 30.8837 0.727264 25 0.727264V0.727264Z" fill="#338AF3"/>
<path d="M25 19.2055H49.1388C48.5119 16.8799 47.5592 14.6884 46.3307 12.6837H25V19.2055Z" fill="#338AF3"/>
<path d="M0 25.7273C0 27.9838 0.300781 30.1695 0.86123 32.249H49.1389C49.6992 30.1695 50 27.9838 50 25.7273H0Z" fill="#338AF3"/>
<path d="M21.7391 15.3582L18.6858 16.7945L20.3117 19.7515L16.9963 19.1173L16.5761 22.4664L14.267 20.0031L11.9576 22.4664L11.5376 19.1173L8.22214 19.7513L9.84792 16.7944L6.7948 15.3582L9.84802 13.9222L8.22214 10.9652L11.5375 11.5993L11.9577 8.25021L14.267 10.7135L16.5762 8.25021L16.9963 11.5993L20.3118 10.9652L18.6859 13.9223L21.7391 15.3582Z" fill="#FFDA44"/>
</g>
<defs>
<clipPath id="clip0_415_853">
<rect width="50" height="50" fill="white" transform="translate(0 0.727264)"/>
</clipPath>
</defs>
</svg>
